# PartField Minecraft-style cuboid model
# All cuboid faces retained.
mtllib mc_model.mtl
s off

# segment_id=0 source_name=whole_model
o whole_model
g whole_model
usemtl mc_material
v 0.41602243 -0.78953839 0.90000000
v 0.41602243 -0.78953839 -0.90000000
v 0.41602243 0.78953839 -0.90000000
v 0.41602243 0.78953839 0.90000000
vt 0.00252525 0.01515152
vt 0.16414141 0.01515152
vt 0.16414141 0.98484848
vt 0.00252525 0.98484848
f 1/1 2/2 3/3
f 1/1 3/3 4/4
v -0.41602243 -0.78953839 -0.90000000
v -0.41602243 -0.78953839 0.90000000
v -0.41602243 0.78953839 0.90000000
v -0.41602243 0.78953839 -0.90000000
vt 0.16919192 0.01515152
vt 0.33080808 0.01515152
vt 0.33080808 0.98484848
vt 0.16919192 0.98484848
f 5/5 6/6 7/7
f 5/5 7/7 8/8
v -0.41602243 0.78953839 0.90000000
v 0.41602243 0.78953839 0.90000000
v 0.41602243 0.78953839 -0.90000000
v -0.41602243 0.78953839 -0.90000000
vt 0.33585859 0.01515152
vt 0.49747475 0.01515152
vt 0.49747475 0.98484848
vt 0.33585859 0.98484848
f 9/9 10/10 11/11
f 9/9 11/11 12/12
v -0.41602243 -0.78953839 -0.90000000
v 0.41602243 -0.78953839 -0.90000000
v 0.41602243 -0.78953839 0.90000000
v -0.41602243 -0.78953839 0.90000000
vt 0.50252525 0.01515152
vt 0.66414141 0.01515152
vt 0.66414141 0.98484848
vt 0.50252525 0.98484848
f 13/13 14/14 15/15
f 13/13 15/15 16/16
v -0.41602243 -0.78953839 0.90000000
v 0.41602243 -0.78953839 0.90000000
v 0.41602243 0.78953839 0.90000000
v -0.41602243 0.78953839 0.90000000
vt 0.66919192 0.01515152
vt 0.83080808 0.01515152
vt 0.83080808 0.98484848
vt 0.66919192 0.98484848
f 17/17 18/18 19/19
f 17/17 19/19 20/20
v 0.41602243 -0.78953839 -0.90000000
v -0.41602243 -0.78953839 -0.90000000
v -0.41602243 0.78953839 -0.90000000
v 0.41602243 0.78953839 -0.90000000
vt 0.83585859 0.01515152
vt 0.99747475 0.01515152
vt 0.99747475 0.98484848
vt 0.83585859 0.98484848
f 21/21 22/22 23/23
f 21/21 23/23 24/24
